<?xml version="1.0" standalone="no"?>
<!DOCTYPE svg PUBLIC "-//W3C//DTD SVG 20010904//EN"
 "http://www.w3.org/TR/2001/REC-SVG-20010904/DTD/svg10.dtd">
<svg version="1.0" xmlns="http://www.w3.org/2000/svg"
 width="119.000000pt" height="62.000000pt" color="white" viewBox="0 0 119.000000 62.000000"
 preserveAspectRatio="xMidYMid meet">

<g transform="translate(0.000000,62.000000) scale(0.100000,-0.100000)"
fill="#000000" stroke="none">
<path d="M208 504 c-8 -18 -11 -31 -7 -28 5 3 9 -13 9 -35 0 -39 2 -41 30 -41
53 0 32 -20 -22 -22 -46 -1 -48 -2 -14 -5 l38 -4 -22 -24 c-22 -24 -22 -24 -1
-18 12 3 24 9 27 14 10 16 24 9 24 -11 0 -11 7 -20 15 -20 9 0 15 10 15 26 l0
25 33 -25 c38 -29 53 -32 60 -12 4 9 -8 18 -36 27 l-42 13 40 7 40 6 -47 2
c-57 1 -64 18 -10 24 l37 4 -37 1 c-47 2 -50 19 -5 25 l32 4 -32 1 c-18 1 -33
6 -33 11 0 6 15 12 33 14 l32 4 -34 1 c-27 2 -32 5 -26 20 11 28 11 34 -1 39
-7 2 -18 -10 -25 -27 -18 -40 -43 -40 -37 0 6 42 -16 45 -34 4z m62 -54 c0 -5
-7 -10 -15 -10 -8 0 -15 5 -15 10 0 6 7 10 15 10 8 0 15 -4 15 -10z m0 -30 c0
-5 -7 -10 -15 -10 -8 0 -15 5 -15 10 0 6 7 10 15 10 8 0 15 -4 15 -10z"/>
<path d="M520 500 c0 -20 5 -30 15 -30 10 0 15 10 15 30 0 20 -5 30 -15 30
-10 0 -15 -10 -15 -30z"/>
<path d="M600 500 c0 -20 5 -30 15 -30 10 0 15 10 15 30 0 20 -5 30 -15 30
-10 0 -15 -10 -15 -30z"/>
<path d="M800 511 c0 -12 -8 -21 -22 -24 -14 -3 -8 -5 15 -6 l37 -1 -17 -27
c-9 -16 -26 -39 -37 -53 -11 -14 -14 -19 -6 -12 24 21 30 14 30 -33 0 -25 5
-45 10 -45 6 0 10 25 10 55 0 53 11 72 24 40 7 -20 26 -19 26 1 0 9 -9 18 -20
21 -19 5 -20 7 -5 29 20 30 19 34 -5 34 -13 0 -20 7 -20 20 0 11 -4 20 -10 20
-5 0 -10 -9 -10 -19z"/>
<path d="M910 491 c0 -36 -3 -40 -27 -44 l-28 -4 28 -2 c26 -1 27 -3 27 -60
l0 -60 -32 -4 c-18 -2 -1 -4 37 -4 39 0 60 2 48 4 -21 4 -23 10 -23 63 0 53 2
59 23 63 l22 4 -22 2 c-20 1 -23 7 -23 41 0 29 -4 40 -15 40 -11 0 -15 -11
-15 -39z"/>
<path d="M560 435 c0 -25 1 -47 3 -48 4 -7 -29 -41 -58 -59 -16 -10 -23 -18
-15 -18 21 0 80 37 86 55 4 10 16 3 46 -28 38 -41 40 -41 54 -22 14 19 13 20
-18 28 -47 11 -68 41 -68 93 0 32 -4 44 -15 44 -11 0 -15 -12 -15 -45z"/>
<path d="M507 453 c-15 -14 -7 -61 11 -65 15 -4 17 1 14 34 -4 36 -11 46 -25
31z"/>
<path d="M625 448 c-2 -7 -5 -24 -7 -38 -4 -23 -1 -25 31 -26 20 -1 28 1 19 3
-13 3 -18 14 -18 39 0 33 -16 47 -25 22z"/>
<path d="M291 217 c-17 -17 -13 -42 9 -62 21 -19 27 -50 11 -60 -6 -3 -14 3
-20 12 -9 16 -10 16 -11 -5 0 -20 4 -23 28 -20 23 2 28 8 30 37 3 24 -3 40
-19 57 -12 13 -19 27 -15 31 4 4 11 1 16 -7 8 -13 10 -13 10 1 0 21 -24 31
-39 16z"/>
<path d="M550 221 c-23 -6 -25 -10 -26 -74 l-1 -68 31 3 c22 2 32 9 34 23 2
18 2 18 -8 3 -18 -29 -30 -21 -30 18 0 33 2 35 17 23 15 -12 16 -12 10 4 -4
10 -7 21 -7 23 0 3 -4 2 -10 -1 -5 -3 -10 3 -10 14 0 23 10 27 27 10 9 -9 10
-7 6 10 -3 11 -6 20 -7 20 0 -1 -12 -4 -26 -8z"/>
<path d="M358 150 c-2 -51 0 -70 10 -70 7 0 12 14 12 35 0 19 5 35 10 35 6 0
10 -16 10 -35 0 -21 5 -35 13 -35 9 0 11 19 9 70 -2 38 -8 70 -13 70 -5 0 -9
-11 -9 -25 0 -14 -4 -25 -10 -25 -5 0 -10 11 -10 25 0 14 -4 25 -9 25 -5 0
-11 -32 -13 -70z"/>
<path d="M442 153 c3 -65 4 -68 30 -71 26 -3 26 -2 30 67 1 39 0 71 -4 71 -5
0 -8 -27 -8 -59 0 -66 -19 -96 -22 -34 0 21 0 50 1 66 2 19 -2 27 -14 27 -13
0 -15 -11 -13 -67z"/>
<path d="M605 150 c0 -49 4 -70 13 -70 8 0 12 21 12 70 0 49 -4 70 -12 70 -9
0 -13 -21 -13 -70z"/>
<path d="M650 200 c0 -12 9 -33 20 -48 13 -17 18 -35 14 -45 -8 -22 -20 -22
-28 -1 -4 9 -9 15 -11 12 -10 -10 8 -38 24 -38 45 0 54 54 16 90 -18 17 -22
27 -15 34 8 8 14 6 20 -4 8 -13 10 -12 10 3 0 12 -8 17 -25 17 -18 0 -25 -5
-25 -20z"/>
<path d="M718 150 c-2 -51 0 -70 10 -70 7 0 12 14 12 35 0 19 5 35 10 35 6 0
10 -16 10 -35 0 -21 5 -35 13 -35 8 0 12 21 12 70 0 49 -4 70 -12 70 -8 0 -13
-13 -13 -31 0 -17 -4 -28 -10 -24 -5 3 -10 17 -10 31 0 13 -4 24 -9 24 -5 0
-11 -32 -13 -70z"/>
<path d="M813 153 c-12 -69 -10 -88 8 -63 8 11 12 12 16 3 9 -24 34 -15 28 10
-3 12 -9 42 -13 66 -11 66 -26 60 -39 -16z m27 -18 c0 -8 -4 -15 -10 -15 -5 0
-10 7 -10 15 0 8 5 15 10 15 6 0 10 -7 10 -15z"/>
</g>
</svg>
